<?xml version="1.0" encoding="UTF-8"?>
<svg width="23px" height="22px" viewBox="0 0 23 22" version="1.1" xmlns="http://www.w3.org/2000/svg" xmlns:xlink="http://www.w3.org/1999/xlink">
    <!-- Generator: Sketch 49.1 (51147) - http://www.bohemiancoding.com/sketch -->
    <title>flag-fi</title>
    <desc>Created with Sketch.</desc>
    <defs></defs>
    <g id="Page-1" stroke="none" stroke-width="1" fill="none" fill-rule="evenodd">
        <g id="icons-/-flags-/-finland" transform="translate(-0.142857, -1.000000)">
            <g id="Icons-/-flags-/-finland">
                <g transform="translate(1.000000, 1.000000)">
                    <path d="M6.875,11 L1.375,11 C1.375,14.829913 3.62856522,18.1346957 6.875,19.6833043 L6.875,11 Z" id="Fill-1" fill="#FFFFFF"></path>
                    <path d="M11,20.625 C16.3067826,20.625 20.6254783,16.3072609 20.6254783,10.9995217 L11,10.9995217 L11,20.625 Z" id="Fill-3" fill="#FFFFFF"></path>
                    <path d="M6.875,2.31688696 C4.8816087,3.26766957 3.26795652,4.88132174 2.31717391,6.87471304 L6.875,6.87471304 L6.875,2.31688696 Z" id="Fill-5" fill="#FFFFFF"></path>
                    <path d="M11,6.875 L19.6833043,6.875 C18.1346957,3.62856522 14.829913,1.375 11,1.375 L11,6.875 Z" id="Fill-7" fill="#FFFFFF"></path>
                    <path d="M11,20.625 L11,10.9995217 L20.6254783,10.9995217 C20.6254783,16.3072609 16.3067826,20.625 11,20.625 M1.37452174,10.9995217 L6.87547826,10.9995217 L6.87547826,19.6828261 C3.62904348,18.1342174 1.37452174,14.8294348 1.37452174,10.9995217 M6.87547826,2.31717391 L6.87547826,6.875 L2.31669565,6.875 C3.26843478,4.8816087 4.88113043,3.26795652 6.87547826,2.31717391 M19.6833043,6.875 L11,6.875 L11,1.375 C14.829913,1.375 18.1346957,3.62856522 19.6833043,6.875 M11,0.00047826087 C4.92513043,0.00047826087 0,4.92465217 0,10.9995217 C0,17.0753478 4.92513043,21.9995217 11,21.9995217 C17.0748696,21.9995217 22,17.0753478 22,10.9995217 C22,4.92465217 17.0748696,0.00047826087 11,0.00047826087" id="Fill-9" fill="#4FACDB"></path>
                </g>
            </g>
        </g>
    </g>
</svg>