<?xml version="1.0" encoding="UTF-8"?>
<svg width="23px" height="22px" viewBox="0 0 23 22" version="1.1" xmlns="http://www.w3.org/2000/svg" xmlns:xlink="http://www.w3.org/1999/xlink">
    <!-- Generator: Sketch 49.1 (51147) - http://www.bohemiancoding.com/sketch -->
    <title>flag-gb</title>
    <desc>Created with Sketch.</desc>
    <defs></defs>
    <g id="Page-1" stroke="none" stroke-width="1" fill="none" fill-rule="evenodd">
        <g id="icons-/-flags-/-england" transform="translate(-0.428571, -1.000000)">
            <g id="Icons-/-flags-/-england">
                <g transform="translate(1.000000, 1.000000)">
                    <path d="M18.770687,16.6560087 C19.5426,15.5990522 20.1069478,14.383313 20.3967739,13.0623565 L15.1770348,13.0623565 L18.770687,16.6560087 Z" id="Fill-1" fill="#0073A0"></path>
                    <path d="M6.18745217,2.6774 C5.89571304,2.84670435 5.61545217,3.03131304 5.3438,3.22931304 L6.18745217,4.07296522 L6.18745217,2.6774 Z" id="Fill-3" fill="#0073A0"></path>
                    <path d="M19.3226,6.18745217 C18.9199043,5.49301739 18.4368609,4.85214783 17.8792087,4.28206087 L15.9738174,6.18745217 L19.3226,6.18745217 Z" id="Fill-5" fill="#0073A0"></path>
                    <path d="M15.0249478,2.26867826 C14.4022522,1.98076522 13.7479913,1.75311304 13.0621652,1.60293913 L13.0621652,4.23146087 L15.0249478,2.26867826 Z" id="Fill-7" fill="#0073A0"></path>
                    <path d="M2.96368696,5.71674783 C2.86229565,5.8697913 2.76951304,6.02857391 2.67768696,6.18735652 L3.43429565,6.18735652 L2.96368696,5.71674783 Z" id="Fill-9" fill="#0073A0"></path>
                    <path d="M4.28177391,17.8795913 C4.85186087,18.4372435 5.49368696,18.920287 6.18716522,19.3229826 L6.18716522,15.9742 L4.28177391,17.8795913 Z" id="Fill-11" fill="#0073A0"></path>
                    <path d="M1.60313043,13.0625478 C1.75330435,13.7474174 1.98095652,14.4026348 2.26886957,15.0253304 L4.23069565,13.0625478 L1.60313043,13.0625478 Z" id="Fill-13" fill="#0073A0"></path>
                    <path d="M13.0624522,20.3968696 C14.2294087,20.1405217 15.3160174,19.6746957 16.2830609,19.0366957 L13.0624522,15.816087 L13.0624522,20.3968696 Z" id="Fill-15" fill="#0073A0"></path>
                    <path d="M6.18764348,4.07296522 L6.18764348,2.6774 L6.18764348,2.6774 L6.18764348,4.07296522 Z" id="Fill-17" fill="#FFFFFF"></path>
                    <path d="M1.18465217,16.1087826 L1.34056522,16.2646957 C1.30326087,16.1967826 1.2736087,16.1250435 1.23726087,16.0561739 L1.18465217,16.1087826 Z" id="Fill-19" fill="#FFFFFF"></path>
                    <path d="M6.18745217,6.18745217 L6.18745217,6.18745217 L6.18745217,5.04632174 L6.18745217,5.04632174 L4.79475652,3.65362609 C4.26771304,4.10032174 3.79423478,4.6044087 3.3724087,5.15249565 L4.40832174,6.18745217 L6.18745217,6.18745217 Z" id="Fill-21" fill="#F05E5E"></path>
                    <path d="M13.0624522,13.0625478 L13.0624522,14.8416783 L13.0624522,14.8416783 L16.8474087,18.6275913 C17.3954957,18.2057652 17.8995826,17.732287 18.3462783,17.2052435 L14.2035826,13.0625478 L13.0624522,13.0625478 Z" id="Fill-23" fill="#F05E5E"></path>
                    <path d="M19.9794435,7.56254783 L14.5990087,7.56254783 L13.6252696,7.56254783 L13.0628348,7.56254783 L11.6873565,7.56254783 L11.6873565,6.57924348 L11.6873565,6.18802609 L11.6873565,5.60646087 L11.6873565,1.4102 C11.4597043,1.39393913 11.2320522,1.3748087 10.9996174,1.3748087 C9.78770435,1.3748087 8.63222609,1.61011304 7.56283478,2.02046087 L7.56283478,5.44767826 L7.56283478,6.18802609 L7.56283478,6.42141739 L7.56283478,7.56254783 L7.56283478,7.56254783 L7.56283478,7.56254783 L6.18735652,7.56254783 L6.18735652,7.56254783 L6.18735652,7.56254783 L5.78274783,7.56254783 L4.8090087,7.56254783 L2.02074783,7.56254783 C1.60944348,8.63193913 1.37509565,9.78741739 1.37509565,11.000287 C1.37509565,11.2317652 1.39326957,11.4594174 1.40953043,11.6870696 L5.6057913,11.6870696 L6.18735652,11.6870696 L6.18735652,11.6870696 L6.57953043,11.6870696 L7.56283478,11.6870696 L7.56283478,11.6870696 L7.56283478,13.0625478 L7.56283478,13.6249826 L7.56283478,13.6249826 L7.56283478,14.5987217 L7.56283478,14.5987217 L7.56283478,19.9791565 L7.56283478,19.9791565 C8.63222609,20.3904609 9.78770435,20.6248087 10.9996174,20.6248087 C11.2320522,20.6248087 11.4597043,20.6066348 11.6873565,20.5903739 L11.6873565,14.4408957 L11.6873565,14.4408957 L11.6873565,13.4671565 L11.6873565,13.4671565 L11.6873565,13.0625478 L11.6873565,11.6870696 L11.6873565,11.6870696 L12.828487,11.6870696 L13.0628348,11.6870696 L13.0628348,11.6870696 L13.8022261,11.6870696 L20.5906609,11.6870696 C20.6059652,11.4594174 20.6250957,11.2317652 20.6250957,11.000287 C20.6250957,9.78741739 20.3907478,8.63193913 19.9794435,7.56254783" id="Fill-25" fill="#F05E5E"></path>
                    <path d="M13.0624522,6.18745217 L15.0003652,6.18745217 L17.3773217,3.81049565 C16.8550609,3.34753913 16.2878435,2.93527826 15.6737565,2.59284348 L13.0624522,5.20414783 L13.0624522,6.18745217 Z" id="Fill-27" fill="#F05E5E"></path>
                    <path d="M6.18745217,15.0002696 L6.18745217,13.0623565 L5.20414783,13.0623565 L2.59284348,15.6736609 C2.93527826,16.2877478 3.34753913,16.8559217 3.81049565,17.3772261 L6.18745217,15.0002696 Z" id="Fill-29" fill="#F05E5E"></path>
                    <path d="M20.3968696,13.0625478 C20.1070435,14.3835043 19.5426957,15.598287 18.7707826,16.6562 C18.634,16.8427217 18.4953043,17.028287 18.346087,17.2052435 C17.9003478,17.732287 17.3962609,18.2057652 16.8481739,18.6275913 C16.6635652,18.7691565 16.478,18.9078522 16.2828696,19.0360261 C15.3167826,19.6740261 14.2292174,20.1408087 13.0622609,20.3971565 L13.0622609,20.3971565 C12.6155652,20.4947217 12.1554783,20.5568957 11.6877391,20.5903739 C11.4591304,20.6066348 11.2324348,20.6248087 11,20.6248087 C9.78808696,20.6248087 8.63165217,20.3904609 7.56226087,19.9791565 L7.56226087,19.9791565 C7.08495652,19.7955043 6.62582609,19.5774174 6.18773913,19.3229826 L6.18773913,19.3229826 C5.49330435,18.920287 4.85243478,18.4372435 4.2813913,17.8795913 C4.11782609,17.7188957 3.96286957,17.5495913 3.81078261,17.3774174 C3.34686957,16.8551565 2.93556522,16.2879391 2.59313043,15.6738522 C2.47547826,15.4634174 2.37026087,15.2453304 2.26886957,15.0253304 C1.98095652,14.4026348 1.75330435,13.7474174 1.60313043,13.0625478 C1.50556522,12.6148957 1.4433913,12.1557652 1.40991304,11.6880261 C1.39365217,11.4594174 1.37547826,11.2317652 1.37547826,11.000287 C1.37547826,9.78741739 1.60982609,8.63193913 2.02017391,7.56254783 C2.20382609,7.08428696 2.42286957,6.62515652 2.67730435,6.18802609 C2.77008696,6.02828696 2.86286957,5.86950435 2.96330435,5.71646087 C3.09147826,5.52228696 3.23113043,5.33672174 3.37269565,5.15211304 C3.79356522,4.60402609 4.268,4.09993913 4.79504348,3.6542 C4.972,3.50498261 5.1566087,3.36628696 5.34408696,3.22950435 C5.61478261,3.03150435 5.896,2.84689565 6.18773913,2.6775913 L6.18773913,2.6775913 C6.62582609,2.42315652 7.08495652,2.20411304 7.56226087,2.02046087 L7.56226087,2.02046087 C8.63165217,1.61011304 9.78808696,1.3748087 11,1.3748087 C11.2324348,1.3748087 11.4591304,1.39393913 11.6877391,1.4102 C12.1554783,1.44367826 12.6155652,1.50489565 13.0622609,1.60341739 C13.748087,1.7535913 14.4023478,1.98028696 15.0250435,2.26915652 C15.2450435,2.37054783 15.4631304,2.47576522 15.6745217,2.59341739 C16.2876522,2.93585217 16.8558261,3.34715652 17.3771304,3.81106957 C17.5493043,3.96315652 17.7186087,4.11715652 17.8793043,4.28167826 C18.4369565,4.85272174 18.92,5.4935913 19.3226957,6.18802609 C19.5771304,6.62515652 19.7961739,7.08428696 19.9798261,7.56254783 C20.3901739,8.63193913 20.6254783,9.78741739 20.6254783,11.000287 C20.6254783,11.2317652 20.6063478,11.4594174 20.590087,11.6880261 C20.5566087,12.1557652 20.4953913,12.6148957 20.3968696,13.0625478 M11,0.000286956522 C17.0748696,0.000286956522 22,4.92446087 22,11.000287 C22,17.0751565 17.0748696,22.000287 11,22.000287 C6.83243478,22.000287 3.20721739,19.6816783 1.34104348,16.2649826 C1.30373913,16.1970696 1.27313043,16.1253304 1.23773913,16.0564609 C0.451478261,14.5413304 0,12.8243739 0,11.000287 C0,4.92446087 4.92513043,0.000286956522 11,0.000286956522 Z" id="Fill-39" fill="#0073A0"></path>
                </g>
            </g>
        </g>
    </g>
</svg>