<?xml version="1.0" encoding="UTF-8"?>
<svg width="23px" height="22px" viewBox="0 0 23 22" version="1.1" xmlns="http://www.w3.org/2000/svg" xmlns:xlink="http://www.w3.org/1999/xlink">
    <!-- Generator: Sketch 49.1 (51147) - http://www.bohemiancoding.com/sketch -->
    <title>flag-de</title>
    <desc>Created with Sketch.</desc>
    <defs></defs>
    <g id="Page-1" stroke="none" stroke-width="1" fill="none" fill-rule="evenodd">
        <g id="icons-/-flags-/-germany" transform="translate(-0.857143, -1.000000)">
            <g id="Icons-/-flags-/-germany">
                <g transform="translate(1.000000, 1.000000)">
                    <path d="M11,1.375 C6.91182609,1.375 3.42052174,3.94134783 2.02782609,7.5436087 L19.9721739,7.5436087 C18.5794783,3.94134783 15.0881739,1.375 11,1.375" id="Fill-1" fill="#303838"></path>
                    <path d="M1.375,11 C1.375,12.2195652 1.61221739,13.3817391 2.02734783,14.4568696 L19.9726522,14.4568696 C20.3877826,13.3817391 20.625,12.2195652 20.625,11 C20.625,9.78043478 20.3877826,8.61826087 19.9726522,7.54313043 L2.02734783,7.54313043 C1.61221739,8.61826087 1.375,9.78043478 1.375,11" id="Fill-3" fill="#EF5E5E"></path>
                    <path d="M11,20.625 C15.0881739,20.625 18.5794783,18.0586522 19.9721739,14.4563913 L2.02782609,14.4563913 C3.42052174,18.0586522 6.91182609,20.625 11,20.625" id="Fill-5" fill="#FFC830"></path>
                    <path d="M20.625,11 C20.625,12.2195652 20.3877826,13.3817391 19.9726522,14.4568696 C18.5799565,18.0591304 15.0876957,20.6254783 10.9995217,20.6254783 C6.91230435,20.6254783 3.42004348,18.0591304 2.02734783,14.4568696 C1.61221739,13.3817391 1.375,12.2195652 1.375,11 C1.375,9.78043478 1.61221739,8.61826087 2.02734783,7.54313043 C3.42004348,3.94086957 6.91230435,1.37452174 10.9995217,1.37452174 C15.0876957,1.37452174 18.5799565,3.94086957 19.9726522,7.54313043 C20.3877826,8.61826087 20.625,9.78043478 20.625,11 M10.9995217,0 C4.92465217,0 0.00047826087,4.92513043 0.00047826087,11 C0.00047826087,17.0748696 4.92465217,22 10.9995217,22 C17.0753478,22 21.9995217,17.0748696 21.9995217,11 C21.9995217,4.92513043 17.0753478,0 10.9995217,0" id="Fill-7" fill="#EF5E5E"></path>
                </g>
            </g>
        </g>
    </g>
</svg>