<?xml version="1.0" encoding="UTF-8"?>
<svg width="23px" height="22px" viewBox="0 0 23 22" version="1.1" xmlns="http://www.w3.org/2000/svg" xmlns:xlink="http://www.w3.org/1999/xlink">
    <!-- Generator: Sketch 49.1 (51147) - http://www.bohemiancoding.com/sketch -->
    <title>flag-da</title>
    <desc>Created with Sketch.</desc>
    <defs></defs>
    <g id="Page-1" stroke="none" stroke-width="1" fill="none" fill-rule="evenodd">
        <g id="icons-/-flags-/-denmark" transform="translate(-0.714286, -1.000000)">
            <g id="Icons-/-flags-/-sweden">
                <g transform="translate(1.000000, 1.000000)">
                    <path d="M2.02046087,7.56254783 L7.56254783,7.56254783 L7.56254783,2.02046087 C5.01915652,2.99802609 2.99802609,5.01915652 2.02046087,7.56254783" id="Fill-1" fill="#F05E5E"></path>
                    <path d="M11.6874522,1.40981739 L11.6874522,7.56216522 L19.9795391,7.56216522 C18.6700609,4.15503478 15.4829304,1.68051304 11.6874522,1.40981739" id="Fill-3" fill="#F05E5E"></path>
                    <path d="M7.56245217,19.9794435 L7.56245217,11.6873565 L1.41010435,11.6873565 C1.67984348,15.4828348 4.15436522,18.6699652 7.56245217,19.9794435" id="Fill-5" fill="#F05E5E"></path>
                    <path d="M11.6874522,20.5901826 C16.4461478,20.2515739 20.2511913,16.4455739 20.5898,11.6878348 L11.6874522,11.6878348 L11.6874522,20.5901826 Z" id="Fill-7" fill="#F05E5E"></path>
                    <path d="M11.6874522,20.5901826 L11.6874522,11.6878348 L20.5898,11.6878348 C20.2511913,16.4455739 16.4461478,20.2515739 11.6874522,20.5901826 L11.6874522,20.5901826 Z M11.6874522,1.4100087 C15.4829304,1.67974783 18.6700609,4.15522609 19.9795391,7.56235652 L11.6874522,7.56235652 L11.6874522,1.4100087 Z M7.56293043,7.56235652 L2.02084348,7.56235652 C2.99745217,5.01992174 5.01953913,2.99783478 7.56293043,2.02026957 L7.56293043,7.56235652 Z M7.56293043,19.9799217 C4.15484348,18.6704435 1.68032174,15.483313 1.40962609,11.6878348 L7.56293043,11.6878348 L7.56293043,19.9799217 Z M20.6720609,5.75644348 C20.3334522,5.13374783 19.9364957,4.54644348 19.487887,4.00313913 C19.0402348,3.45983478 18.5399739,2.96053043 17.9966696,2.51192174 C17.7250174,2.28809565 17.4428435,2.07670435 17.1501478,1.87870435 C16.5647565,1.48366087 15.9391913,1.14313913 15.2820609,0.864791304 C14.9530174,0.72513913 14.6153652,0.601747826 14.2710174,0.494617391 C13.2379739,0.173226087 12.1389304,9.5652174e-05 10.999713,9.5652174e-05 C7.96275652,9.5652174e-05 5.2118,1.23113913 3.22127826,3.22166087 C2.72388696,3.7200087 2.27432174,4.26426957 1.87832174,4.84966087 C0.692234783,6.60583478 -0.000286956521,8.72166087 -0.000286956521,11.0000957 C-0.000286956521,13.2785304 0.692234783,15.3943565 1.87832174,17.1505304 C2.27432174,17.7359217 2.72388696,18.2801826 3.22127826,18.7785304 C5.2118,20.7690522 7.96275652,22.0000957 10.999713,22.0000957 C12.1389304,22.0000957 13.2379739,21.8269652 14.2710174,21.5055739 C14.6153652,21.3984435 14.9530174,21.2750522 15.2820609,21.1354 C15.9391913,20.8570522 16.5647565,20.5165304 17.1501478,20.121487 C17.4428435,19.923487 17.7250174,19.7120957 17.9966696,19.4882696 C18.5399739,19.0396609 19.0402348,18.5403565 19.487887,17.9970522 C19.9364957,17.4537478 20.3334522,16.8664435 20.6720609,16.2437478 C21.5185826,14.6846174 21.999713,12.8987913 21.999713,11.0000957 C21.999713,9.1014 21.5185826,7.31557391 20.6720609,5.75644348 L20.6720609,5.75644348 Z" id="Fill-9" fill="#FFFFFF"></path>
                    <path d="M20.3968696,13.0625478 C20.1070435,14.3835043 19.5426957,15.598287 18.7707826,16.6562 C18.634,16.8427217 18.4953043,17.028287 18.346087,17.2052435 C17.9003478,17.732287 17.3962609,18.2057652 16.8481739,18.6275913 C16.6635652,18.7691565 16.478,18.9078522 16.2828696,19.0360261 C15.3167826,19.6740261 14.2292174,20.1408087 13.0622609,20.3971565 L13.0622609,20.3971565 C12.6155652,20.4947217 12.1554783,20.5568957 11.6877391,20.5903739 C11.4591304,20.6066348 11.2324348,20.6248087 11,20.6248087 C9.78808696,20.6248087 8.63165217,20.3904609 7.56226087,19.9791565 L7.56226087,19.9791565 C7.08495652,19.7955043 6.62582609,19.5774174 6.18773913,19.3229826 L6.18773913,19.3229826 C5.49330435,18.920287 4.85243478,18.4372435 4.2813913,17.8795913 C4.11782609,17.7188957 3.96286957,17.5495913 3.81078261,17.3774174 C3.34686957,16.8551565 2.93556522,16.2879391 2.59313043,15.6738522 C2.47547826,15.4634174 2.37026087,15.2453304 2.26886957,15.0253304 C1.98095652,14.4026348 1.75330435,13.7474174 1.60313043,13.0625478 C1.50556522,12.6148957 1.4433913,12.1557652 1.40991304,11.6880261 C1.39365217,11.4594174 1.37547826,11.2317652 1.37547826,11.000287 C1.37547826,9.78741739 1.60982609,8.63193913 2.02017391,7.56254783 C2.20382609,7.08428696 2.42286957,6.62515652 2.67730435,6.18802609 C2.77008696,6.02828696 2.86286957,5.86950435 2.96330435,5.71646087 C3.09147826,5.52228696 3.23113043,5.33672174 3.37269565,5.15211304 C3.79356522,4.60402609 4.268,4.09993913 4.79504348,3.6542 C4.972,3.50498261 5.1566087,3.36628696 5.34408696,3.22950435 C5.61478261,3.03150435 5.896,2.84689565 6.18773913,2.6775913 L6.18773913,2.6775913 C6.62582609,2.42315652 7.08495652,2.20411304 7.56226087,2.02046087 L7.56226087,2.02046087 C8.63165217,1.61011304 9.78808696,1.3748087 11,1.3748087 C11.2324348,1.3748087 11.4591304,1.39393913 11.6877391,1.4102 C12.1554783,1.44367826 12.6155652,1.50489565 13.0622609,1.60341739 C13.748087,1.7535913 14.4023478,1.98028696 15.0250435,2.26915652 C15.2450435,2.37054783 15.4631304,2.47576522 15.6745217,2.59341739 C16.2876522,2.93585217 16.8558261,3.34715652 17.3771304,3.81106957 C17.5493043,3.96315652 17.7186087,4.11715652 17.8793043,4.28167826 C18.4369565,4.85272174 18.92,5.4935913 19.3226957,6.18802609 C19.5771304,6.62515652 19.7961739,7.08428696 19.9798261,7.56254783 C20.3901739,8.63193913 20.6254783,9.78741739 20.6254783,11.000287 C20.6254783,11.2317652 20.6063478,11.4594174 20.590087,11.6880261 C20.5566087,12.1557652 20.4953913,12.6148957 20.3968696,13.0625478 M11,0.000286956522 C4.92513043,0.000286956522 0,4.92446087 0,11.000287 C0,12.8243739 0.451478261,14.5413304 1.23773913,16.0564609 C1.27313043,16.1253304 1.30373913,16.1970696 1.34104348,16.2649826 C3.20721739,19.6816783 6.83243478,22.000287 11,22.000287 C17.0748696,22.000287 22,17.0751565 22,11.000287 C22,4.92446087 17.0748696,0.000286956522 11,0.000286956522" id="Fill-39" fill="#BC4A4A"></path>
                </g>
            </g>
        </g>
    </g>
</svg>