<?xml version="1.0" encoding="UTF-8"?>
<svg width="22px" height="22px" viewBox="0 0 22 22" version="1.1" xmlns="http://www.w3.org/2000/svg" xmlns:xlink="http://www.w3.org/1999/xlink">
    <!-- Generator: Sketch 49.1 (51147) - http://www.bohemiancoding.com/sketch -->
    <title>flag-row</title>
    <desc>Created with Sketch.</desc>
    <defs></defs>
    <g id="Page-1" stroke="none" stroke-width="1" fill="none" fill-rule="evenodd">
        <g id="icons-/-flags-/-world" transform="translate(-1.000000, -1.000000)">
            <g id="Icons-/-flags-/-world">
                <g transform="translate(1.000000, 1.000000)">
                    <path d="M17.1992174,13.101 C17.1427826,13.0656087 17.0853913,13.0263913 17.028,12.9843043 C14.8433043,11.3802174 10.7197391,10.7795217 7.92765217,12.4419565 C7.63782609,12.6313478 7.30591304,12.769087 6.94434783,12.838913 C5.45791304,13.1258696 4.02121739,12.153087 3.73426087,10.6656957 C3.44826087,9.17926087 4.42104348,7.74256522 5.90747826,7.4556087 C6.62295652,7.31786957 7.326,7.47186957 7.89608696,7.8343913 C8.97026087,8.46952174 10.1735652,7.69473913 9.99086957,6.89891304 C9.8033913,6.08778261 9.27252174,6.34317391 8.8793913,6.60908696 L8.87843478,6.60908696 C8.29208696,7.095 7.60147826,7.22317391 7.282,6.88743478 C6.9386087,6.52491304 7.15573913,5.76256522 7.766,5.18291304 C7.79373913,5.15708696 7.82147826,5.13126087 7.85017391,5.1063913 C7.85017391,5.1063913 7.85113043,5.10543478 7.85208696,5.10447826 C8.514,4.4416087 10.9846957,3.42004348 13.1196522,4.92656522 C15.2536522,6.43308696 14.738087,3.36743478 11.9727826,2.72847826 C10.7446087,2.4443913 11.2573043,1.705 12.6853913,1.53186957 C12.1373043,1.43526087 11.5758261,1.375 11,1.375 C10.5657391,1.375 10.142,1.41421739 9.72304348,1.46969565 C9.88565217,2.09430435 8.68426087,3.24308696 6.92808696,4.10586957 C5.54304348,4.78691304 4.22973913,5.08247826 3.54008696,4.92847826 C2.18852174,6.58613043 1.37547826,8.69908696 1.37547826,10.9995217 C1.37547826,13.3066522 2.19234783,15.4263043 3.5506087,17.0858696 C3.60130435,16.3015217 4.18573913,15.6338696 4.99495652,15.5248261 C5.25321739,15.4903913 5.50478261,15.5162174 5.73721739,15.5917826 C6.27191304,15.7505652 6.77886957,15.7476957 7.87026087,15.3746522 L7.87121739,15.3746522 C8.28252174,15.1680435 8.73591304,15.0245652 9.218,14.9595217 C10.7216522,14.7586522 12.1430435,15.3708261 13.0498261,16.4526522 C13.0507826,16.4536087 13.0546087,16.4545652 13.0546087,16.4545652 C13.6514783,17.2140435 14.3248696,17.1671739 15.3196522,17.0208261 C15.3569565,17.0141304 15.3913913,16.9997826 15.4296522,16.995 C15.464087,16.9902174 15.4975652,16.9921304 15.532,16.9892609 C15.5530435,16.9863913 15.5721739,16.9835217 15.5932174,16.9806522 C15.6228696,16.9758696 15.6467826,16.9816087 15.6735652,16.9825652 C16.4493043,16.9758696 17.1418261,17.4283043 17.4603478,18.1141304 C18.9133043,16.7941304 19.9635652,15.0427391 20.3978261,13.0579565 C20.0793043,13.2942174 19.710087,13.4702174 19.2949565,13.5505652 C18.5345217,13.696913 17.7865217,13.5142174 17.1992174,13.101" id="Fill-1" fill="#0084C1"></path>
                    <path d="M12.6853913,1.53225217 C11.2573043,1.70538261 10.7446087,2.44477391 11.9727826,2.72886087 C14.738087,3.36686087 15.2536522,6.43346957 13.1196522,4.92694783 C10.9846957,3.42042609 8.514,4.4419913 7.85208696,5.10486087 C7.85113043,5.10581739 7.85017391,5.10581739 7.85017391,5.10581739 C7.82147826,5.13164348 7.79373913,5.15651304 7.766,5.18329565 C7.15573913,5.7619913 6.9386087,6.52529565 7.282,6.88686087 C7.60147826,7.22355652 8.29208696,7.09442609 8.87843478,6.60946957 C8.87843478,6.60946957 8.8793913,6.60946957 8.8793913,6.60851304 C9.27252174,6.34355652 9.8033913,6.0872087 9.98991304,6.89929565 C10.1735652,7.69512174 8.97026087,8.46990435 7.89608696,7.83381739 C7.326,7.47225217 6.62295652,7.31825217 5.90747826,7.4559913 C4.42104348,7.7419913 3.44826087,9.17964348 3.73426087,10.6660783 C4.02121739,12.152513 5.45791304,13.1252957 6.94434783,12.8392957 C7.30591304,12.7694696 7.63782609,12.6317304 7.92765217,12.4413826 C10.7197391,10.7799043 14.8433043,11.3806 17.028,12.984687 C17.0853913,13.0267739 17.1427826,13.0650348 17.1992174,13.1013826 C17.7865217,13.5136435 18.5345217,13.6972957 19.2949565,13.5509478 C19.710087,13.4706 20.0793043,13.2936435 20.3978261,13.0583391 C20.5432174,12.394513 20.6254783,11.7067739 20.6254783,10.9999043 C20.6254783,6.26894783 17.1906087,2.33286087 12.6853913,1.53225217" id="Fill-3" fill="#47BC73"></path>
                    <path d="M6.92846957,4.10596522 C8.68464348,3.24318261 9.88603478,2.0944 9.72246957,1.4697913 C7.23933913,1.80170435 5.05081739,3.07483478 3.54046957,4.92857391 C4.22916522,5.08257391 5.54342609,4.78605217 6.92846957,4.10596522" id="Fill-5" fill="#47BC73"></path>
                    <path d="M15.6732783,16.9825652 C15.6464957,16.9816087 15.6235391,16.9758696 15.5929304,16.9806522 C15.571887,16.9835217 15.5527565,16.9863913 15.531713,16.9892609 C15.4972783,16.9921304 15.4638,16.9902174 15.4303217,16.995 C15.3911043,16.9997826 15.3566696,17.0141304 15.3193652,17.0208261 C14.3255391,17.1671739 13.6511913,17.2140435 13.0543217,16.4545652 C13.0543217,16.4545652 13.0514522,16.4536087 13.0495391,16.4526522 C12.1427565,15.3708261 10.7213652,14.7586522 9.21771304,14.9595217 C8.73562609,15.0245652 8.2831913,15.1680435 7.87093043,15.3746522 L7.86997391,15.3746522 C6.77858261,15.7476957 6.27258261,15.7505652 5.73693043,15.5917826 C5.50449565,15.5162174 5.25293043,15.4903913 4.99466957,15.5248261 C4.18545217,15.6338696 3.60101739,16.3015217 3.55032174,17.0858696 C5.31701739,19.2437826 8.00006087,20.625 10.999713,20.625 C13.4876261,20.625 15.7498,19.6684783 17.4600609,18.1141304 C17.1424957,17.4283043 16.4490174,16.9758696 15.6732783,16.9825652" id="Fill-7" fill="#47BC73"></path>
                    <path d="M17.4602522,18.1141304 C15.7499913,19.6684783 13.4878174,20.625 10.9999043,20.625 C8.00025217,20.625 5.3172087,19.2437826 3.55051304,17.0858696 C2.19225217,15.4263043 1.37538261,13.3066522 1.37538261,11.0004783 C1.37538261,8.69908696 2.18842609,6.58613043 3.5399913,4.92847826 C5.05129565,3.07569565 7.23886087,1.8016087 9.72294783,1.46969565 C10.1419043,1.41421739 10.5656435,1.375 10.9999043,1.375 C11.5757304,1.375 12.1372087,1.43526087 12.6852957,1.53186957 C17.190513,2.33247826 20.6253826,6.26856522 20.6253826,11.0004783 C20.6253826,11.7073478 20.5431217,12.3941304 20.3977304,13.0579565 C19.9634696,15.0427391 18.9132087,16.7941304 17.4602522,18.1141304 M10.9999043,0.00047826087 C4.92503478,0.00047826087 -9.56521739e-05,4.92465217 -9.56521739e-05,11.0004783 C-9.56521739e-05,17.0753478 4.92503478,21.9995217 10.9999043,21.9995217 C17.0747739,21.9995217 21.9999043,17.0753478 21.9999043,11.0004783 C21.9999043,4.92465217 17.0747739,0.00047826087 10.9999043,0.00047826087" id="Fill-9" fill="#0084C1"></path>
                </g>
            </g>
        </g>
    </g>
</svg>