<?xml version="1.0" encoding="UTF-8"?>
<svg width="23px" height="22px" viewBox="0 0 23 22" version="1.1" xmlns="http://www.w3.org/2000/svg" xmlns:xlink="http://www.w3.org/1999/xlink">
    <!-- Generator: Sketch 49.1 (51147) - http://www.bohemiancoding.com/sketch -->
    <title>flag-no</title>
    <desc>Created with Sketch.</desc>
    <defs></defs>
    <g id="Page-1" stroke="none" stroke-width="1" fill="none" fill-rule="evenodd">
        <g id="icons-/-flags-/-norway" transform="translate(-0.571429, -1.000000)">
            <g id="Icons-/-social-/-norway">
                <g id="Icons-/-flags-/-norway" transform="translate(1.000000, 1.000000)">
                    <path d="M6.18745217,6.18745217 L2.67701739,6.18745217 C3.52162609,4.73353913 4.73353913,3.52162609 6.18745217,2.67701739 L6.18745217,6.18745217 Z M1.60313043,13.0625478 L6.18773913,13.0625478 L6.18773913,19.3229826 C3.88826087,17.9876783 2.18947826,15.734113 1.60313043,13.0625478 Z M13.0624522,13.0625478 L20.3970609,13.0625478 C19.5954957,16.7155043 16.7154087,19.5955913 13.0624522,20.3971565 L13.0624522,13.0625478 Z M19.3226,6.18745217 L13.0621652,6.18745217 L13.0621652,1.60284348 C15.7337304,2.1891913 17.9872957,3.88797391 19.3226,6.18745217 Z" id="Combined-Shape" fill="#F05E5E"></path>
                    <path d="M6.18745217,11.6875478 L7.56197391,11.6875478 L7.56197391,13.0620696 L7.56197391,19.9796348 C7.08466957,19.7959826 6.62553913,19.5769391 6.18745217,19.3225043 C3.88797391,17.9881565 2.1891913,15.7336348 1.60284348,13.0620696 C1.50527826,12.6153739 1.44310435,12.155287 1.40962609,11.6875478 L6.18745217,11.6875478 Z M11.6874522,6.18754783 L11.6874522,1.40972174 C12.1551913,1.4432 12.6152783,1.50537391 13.0619739,1.60293913 C15.7335391,2.18928696 17.9880609,3.88806957 19.3224087,6.18754783 C19.5768435,6.62563478 19.795887,7.08476522 19.9795391,7.56302609 L13.0619739,7.56302609 L11.6874522,7.56302609 L11.6874522,6.18754783 Z M6.18745217,2.67711304 C6.62553913,2.42363478 7.08466957,2.2045913 7.56197391,2.02093913 L7.56197391,6.18754783 L7.56197391,7.56302609 L6.18745217,7.56302609 L2.02084348,7.56302609 C2.20449565,7.08476522 2.42353913,6.62563478 2.67701739,6.18754783 C3.52162609,4.73363478 4.73353913,3.52172174 6.18745217,2.67711304 L6.18745217,2.67711304 Z M13.0619739,20.3966783 C12.6152783,20.4952 12.1551913,20.5564174 11.6874522,20.5898957 L11.6874522,13.0620696 L11.6874522,11.6875478 L13.0619739,11.6875478 L20.5898,11.6875478 C20.5563217,12.155287 20.4951043,12.6153739 20.3965826,13.0620696 C19.5950174,16.7159826 16.715887,19.595113 13.0619739,20.3966783 L13.0619739,20.3966783 Z M21.2842348,7.12398261 C21.7395391,8.33111304 21.999713,9.63389565 21.999713,10.9998087 C21.999713,17.0756348 17.0745826,21.9998087 10.999713,21.9998087 C9.6338,21.9998087 8.33101739,21.7396348 7.12388696,21.2843304 C6.80345217,21.1628522 6.49162609,21.0289391 6.18745217,20.8797217 C2.5278,19.0938957 -0.000286956522,15.3472 -0.000286956522,10.9998087 C-0.000286956522,9.63389565 0.260843478,8.33111304 0.716147826,7.12398261 C0.836669565,6.80354783 0.97153913,6.49172174 1.1198,6.18754783 C2.19588696,3.98276522 3.98266957,2.19598261 6.18745217,1.11989565 C6.49162609,0.971634783 6.80345217,0.836765217 7.12388696,0.716243478 C8.33101739,0.26093913 9.6338,-0.000191304348 10.999713,-0.000191304348 C15.3471043,-0.000191304348 19.0938,2.52789565 20.8796261,6.18754783 C21.0288435,6.49172174 21.1627565,6.80354783 21.2842348,7.12398261 Z" id="Fill-25" fill="#0084C1"></path>
                </g>
            </g>
        </g>
    </g>
</svg>