<?xml version="1.0" encoding="UTF-8"?>
<svg width="23px" height="22px" viewBox="0 0 23 22" version="1.1" xmlns="http://www.w3.org/2000/svg" xmlns:xlink="http://www.w3.org/1999/xlink">
    <!-- Generator: Sketch 49.1 (51147) - http://www.bohemiancoding.com/sketch -->
    <title>flag-se</title>
    <desc>Created with Sketch.</desc>
    <defs></defs>
    <g id="Page-1" stroke="none" stroke-width="1" fill="none" fill-rule="evenodd">
        <g id="icons-/-flags-/-sweden" transform="translate(-0.285714, -1.000000)">
            <g id="Icons-/-flags-/-sweden">
                <g transform="translate(1.000000, 1.000000)">
                    <path d="M2.02046087,7.56254783 L7.56254783,7.56254783 L7.56254783,2.02046087 C5.01915652,2.99802609 2.99802609,5.01915652 2.02046087,7.56254783" id="Fill-1" fill="#0084C1"></path>
                    <path d="M11.6874522,1.40981739 L11.6874522,7.56216522 L19.9795391,7.56216522 C18.6700609,4.15503478 15.4829304,1.68051304 11.6874522,1.40981739" id="Fill-3" fill="#0084C1"></path>
                    <path d="M7.56245217,19.9794435 L7.56245217,11.6873565 L1.41010435,11.6873565 C1.67984348,15.4828348 4.15436522,18.6699652 7.56245217,19.9794435" id="Fill-5" fill="#0084C1"></path>
                    <path d="M11.6874522,20.5901826 C16.4461478,20.2515739 20.2511913,16.4455739 20.5898,11.6878348 L11.6874522,11.6878348 L11.6874522,20.5901826 Z" id="Fill-7" fill="#0084C1"></path>
                    <path d="M11.6874522,20.5901826 L11.6874522,11.6878348 L20.5898,11.6878348 C20.2511913,16.4455739 16.4461478,20.2515739 11.6874522,20.5901826 L11.6874522,20.5901826 Z M11.6874522,1.4100087 C15.4829304,1.67974783 18.6700609,4.15522609 19.9795391,7.56235652 L11.6874522,7.56235652 L11.6874522,1.4100087 Z M7.56293043,7.56235652 L2.02084348,7.56235652 C2.99745217,5.01992174 5.01953913,2.99783478 7.56293043,2.02026957 L7.56293043,7.56235652 Z M7.56293043,19.9799217 C4.15484348,18.6704435 1.68032174,15.483313 1.40962609,11.6878348 L7.56293043,11.6878348 L7.56293043,19.9799217 Z M20.6720609,5.75644348 C20.3334522,5.13374783 19.9364957,4.54644348 19.487887,4.00313913 C19.0402348,3.45983478 18.5399739,2.96053043 17.9966696,2.51192174 C17.7250174,2.28809565 17.4428435,2.07670435 17.1501478,1.87870435 C16.5647565,1.48366087 15.9391913,1.14313913 15.2820609,0.864791304 C14.9530174,0.72513913 14.6153652,0.601747826 14.2710174,0.494617391 C13.2379739,0.173226087 12.1389304,9.56521739e-05 10.999713,9.56521739e-05 C7.96275652,9.56521739e-05 5.2118,1.23113913 3.22127826,3.22166087 C2.72388696,3.7200087 2.27432174,4.26426957 1.87832174,4.84966087 C0.692234783,6.60583478 -0.000286956522,8.72166087 -0.000286956522,11.0000957 C-0.000286956522,13.2785304 0.692234783,15.3943565 1.87832174,17.1505304 C2.27432174,17.7359217 2.72388696,18.2801826 3.22127826,18.7785304 C5.2118,20.7690522 7.96275652,22.0000957 10.999713,22.0000957 C12.1389304,22.0000957 13.2379739,21.8269652 14.2710174,21.5055739 C14.6153652,21.3984435 14.9530174,21.2750522 15.2820609,21.1354 C15.9391913,20.8570522 16.5647565,20.5165304 17.1501478,20.121487 C17.4428435,19.923487 17.7250174,19.7120957 17.9966696,19.4882696 C18.5399739,19.0396609 19.0402348,18.5403565 19.487887,17.9970522 C19.9364957,17.4537478 20.3334522,16.8664435 20.6720609,16.2437478 C21.5185826,14.6846174 21.999713,12.8987913 21.999713,11.0000957 C21.999713,9.1014 21.5185826,7.31557391 20.6720609,5.75644348 L20.6720609,5.75644348 Z" id="Fill-9" fill="#FFC830"></path>
                </g>
            </g>
        </g>
    </g>
</svg>