<?xml version="1.0" encoding="UTF-8"?>
<svg width="22px" height="22px" viewBox="0 0 22 22" version="1.1" xmlns="http://www.w3.org/2000/svg" xmlns:xlink="http://www.w3.org/1999/xlink">
    <!-- Generator: Sketch 49.1 (51147) - http://www.bohemiancoding.com/sketch -->
    <title>flag-ca</title>
    <desc>Created with Sketch.</desc>
    <defs>
        <polygon id="path-1" points="22 6.875e-05 22 22 6.875e-05 22 6.875e-05 6.875e-05"></polygon>
    </defs>
    <g id="Page-1" stroke="none" stroke-width="1" fill="none" fill-rule="evenodd">
        <g id="icons-/-flags-/-canada" transform="translate(-1.000000, -1.000000)">
            <g id="Icons-/-flags-/-england"></g>
            <g id="Page-1" transform="translate(1.000000, 1.000000)">
                <path d="M21.1119906,11 C21.1119906,16.5845625 16.5848031,21.1120937 10.9998969,21.1120937 C5.41533438,21.1120937 0.888146875,16.5845625 0.888146875,11 C0.888146875,5.4154375 5.41533438,0.88790625 10.9998969,0.88790625 C16.5848031,0.88790625 21.1119906,5.4154375 21.1119906,11" id="Fill-1" fill="#FFFFFF"></path>
                <g id="Group-5">
                    <mask id="mask-2" fill="white">
                        <use xlink:href="#path-1"></use>
                    </mask>
                    <g id="Clip-4"></g>
                    <path d="M17.1036938,18.435725 L16.9816625,15.405225 C16.972725,15.1814438 17.167975,15.0040688 17.3896938,15.0343188 L19.5817875,15.3347563 C18.9743813,16.5320375 18.13185,17.5904438 17.1036938,18.435725 M6.772975,19.6336937 L6.772975,2.3661 C8.0510375,1.737725 9.48206875,1.37506875 11.0000688,1.37506875 C13.0144438,1.37506875 14.8844438,1.99931875 16.4320063,3.06150625 L15.3186,5.15494375 C15.1969125,5.38388125 14.9150375,5.47394375 14.6830063,5.35775625 L13.8617875,4.94731875 C13.771725,4.9022875 13.6696313,4.97963125 13.6881938,5.0782875 L14.3939125,8.83169375 C14.4513188,9.13763125 14.0694125,9.32463125 13.8631625,9.0919125 L12.2544125,7.27725625 C12.1911625,7.2061 12.0746313,7.2315375 12.0471313,7.32263125 L11.857725,7.95135 C11.7858813,8.1899125 11.54285,8.33325625 11.2991313,8.2806625 L9.54531875,7.90081875 C9.45594375,7.88156875 9.3779125,7.9644125 9.4026625,8.0524125 L9.98050625,10.0918813 C10.0444438,10.317725 9.9347875,10.5562875 9.72200625,10.6552875 L9.1895375,10.9027875 C9.10806875,10.9406 9.09431875,11.0502563 9.16375625,11.106975 L12.65935,13.9631938 C12.8126625,14.0886625 12.8728188,14.2962875 12.8102563,14.4843187 L12.5359438,15.3069125 C12.5074125,15.3921625 12.5785688,15.4777562 12.6676,15.465725 L15.8125688,15.0343188 C16.0346313,15.0040688 16.2298813,15.1814437 16.2209438,15.405225 L16.076225,18.9932875 C16.0741625,19.05035 16.1154125,19.0916 16.1676625,19.106725 C14.6726938,20.0630375 12.9023813,20.6250688 11.0000688,20.6250688 C9.48206875,20.6250688 8.0510375,20.2620688 6.772975,19.6336937 M11.0000688,6.875e-05 C4.924975,6.875e-05 6.875e-05,4.924975 6.875e-05,11.0000688 C6.875e-05,17.0751625 4.924975,22.0000688 11.0000688,22.0000688 C17.0751625,22.0000688 22.0000688,17.0751625 22.0000688,11.0000688 C22.0000688,4.924975 17.0751625,6.875e-05 11.0000688,6.875e-05" id="Fill-3" fill="#F05E5E" mask="url(#mask-2)"></path>
                </g>
            </g>
        </g>
    </g>
</svg>